<?xml version="1.0" encoding="utf-8"?>
<!-- Generator: Adobe Illustrator 16.0.0, SVG Export Plug-In . SVG Version: 6.00 Build 0)  -->
<!DOCTYPE svg PUBLIC "-//W3C//DTD SVG 1.1//EN" "http://www.w3.org/Graphics/SVG/1.1/DTD/svg11.dtd">
<svg version="1.1" id="Layer_1" xmlns="http://www.w3.org/2000/svg" xmlns:xlink="http://www.w3.org/1999/xlink" x="0px" y="0px"
	 width="102.413px" height="116.518px" viewBox="2.917 120 102.413 116.518" enable-background="new 2.917 120 102.413 116.518"
	 xml:space="preserve">
<path fill="#595A5C" d="M79.727,209.161c14.141,0,25.604-11.462,25.604-25.604c0-13.886-11.059-25.183-24.85-25.582
	c1.146-3.063,1.774-6.381,1.774-9.845c0-15.535-12.595-28.13-28.132-28.13c-15.535,0-28.131,12.595-28.131,28.131
	c0,3.464,0.629,6.78,1.773,9.846c-13.789,0.399-24.848,11.695-24.848,25.582c0,14.141,11.463,25.604,25.604,25.604
	c10.5,0,19.52-6.326,23.465-15.374c-7.893,36.817-35.014,42.729-35.014,42.729h74.301c0,0-27.121-5.912-35.017-42.729
	C60.208,202.836,69.225,209.161,79.727,209.161z"/>
</svg>
