<?xml version="1.0" encoding="utf-8"?>
<!-- Generator: Adobe Illustrator 16.0.0, SVG Export Plug-In . SVG Version: 6.00 Build 0)  -->
<!DOCTYPE svg PUBLIC "-//W3C//DTD SVG 1.1//EN" "http://www.w3.org/Graphics/SVG/1.1/DTD/svg11.dtd">
<svg version="1.1" id="Layer_1" xmlns="http://www.w3.org/2000/svg" xmlns:xlink="http://www.w3.org/1999/xlink" x="0px" y="0px"
	 width="85px" height="100px" viewBox="11.253 0 85 100" enable-background="new 11.253 0 85 100" xml:space="preserve">
<g>
	<path d="M56.701,5.625c0,5.076-0.105,12.7-0.316,22.873c-0.209,10.172-0.314,17.818-0.314,22.938v44.006
		c0,1.203-0.318,1.803-0.959,1.803c-0.531,0-1.33,0.047-2.402,0.135c-1.07,0.088-1.871,0.135-2.4,0.135
		c-0.574,0-1.436-0.09-2.584-0.27c-1.146-0.176-2.008-0.266-2.582-0.266c-0.398,0-0.873-0.734-1.424-2.205
		c-1.589-4.316-5.167-13.889-10.73-28.713c-1.523-4.139-3.842-10.24-6.955-18.297c-0.088-0.268-0.254-0.534-0.496-0.802
		c-0.177,0.313-0.266,0.802-0.266,1.469c0,5.164,0.072,12.91,0.216,23.242c0.144,10.326,0.216,18.072,0.216,23.238
		c0,1.555-0.299,2.334-0.895,2.334H13.35c-0.641,0-0.96-0.688-0.96-2.068c0-4.807,0.116-12.064,0.348-21.77
		c0.231-9.707,0.348-16.984,0.348-21.838c0-5.119-0.104-12.777-0.314-22.972c-0.21-10.194-0.315-17.829-0.315-22.905
		c0-0.979,0.432-1.47,1.292-1.47c1.28,0,2.859-0.177,4.735-0.533C18.925,3.6,19.798,3.31,21.1,2.821
		c1.104-0.401,1.976-0.602,2.616-0.602c0.265,0,0.673,0.757,1.226,2.271l12.352,34.125c1.104,3.071,2.771,7.568,5.002,13.488
		c0.551,1.381,1.025,2.07,1.423,2.07c0.287,0,0.43-1.736,0.43-5.209c0-4.675-0.127-11.709-0.381-21.101
		c-0.254-9.394-0.381-16.451-0.381-21.17c0-1.646,0.232-2.471,0.695-2.471c1.326,0,3.322-0.11,5.994-0.334
		c2.672-0.222,4.67-0.334,5.994-0.334C56.49,3.554,56.701,4.245,56.701,5.625z"/>
	<path d="M95.115,23.99c0,0.89-0.242,1.335-0.729,1.335c-0.838,0-4.162-0.333-9.967-1.001c-0.133,11.263-0.199,19.121-0.199,23.573
		c0,5.253,0.105,13.154,0.314,23.705s0.314,18.453,0.314,23.707c0,0.846-0.1,1.381-0.299,1.604
		c-0.064,0.088-0.375,0.201-0.926,0.332c-1.326,0.357-3.27,0.537-5.83,0.537c-2.848,0-4.846-0.18-5.994-0.537
		c-0.617-0.219-0.928-0.91-0.928-2.068c0-5.254,0.111-13.133,0.332-23.641c0.221-10.506,0.332-18.385,0.332-23.638
		c0-3.474-0.088-11.22-0.266-23.24c-4.414,0.89-7.938,1.335-10.564,1.335c-0.354,0-0.529-0.222-0.529-0.668
		c0-0.578,0.154-2.293,0.465-5.142c0.352-3.116,0.551-5.008,0.594-5.677c0.068-2.093,0.145-4.185,0.232-6.276
		c0.154-3.338,0.42-5.009,0.795-5.009c0.045,0,0.199,0.022,0.465,0.068c3.576,0.934,8.863,1.402,15.863,1.402
		c1.986,0,5.65-0.423,10.994-1.269c2.869-0.445,4.316-0.667,4.338-0.667c0.441,0,0.695,0.056,0.762,0.167
		c0.066,0.111,0.109,0.546,0.133,1.302c0,1.203-0.023,2.872-0.066,5.009c-0.045,2.359-0.066,4.029-0.066,5.008
		c0,1.114,0.072,2.749,0.215,4.909C95.043,21.307,95.115,22.92,95.115,23.99z"/>
</g>
</svg>
